<svg width="239" height="36" viewBox="0 0 239 36" fill="none" xmlns="http://www.w3.org/2000/svg">
<path d="M1.36035 26.9838H7.81044C8.26728 26.9838 8.69149 26.7558 8.94166 26.3759L25.0288 2.0948C25.6271 1.19389 24.9744 -9.15527e-05 23.8976 -9.15527e-05H17.4475C16.9907 -9.15527e-05 16.5665 0.227849 16.3163 0.607751L0.229138 24.8889C-0.3691 25.7898 0.283523 26.9838 1.36035 26.9838Z" fill="#020202"/>
<path d="M8.52761 0H1.28349C0.574639 0 0 0.573439 0 1.28081V6.78396C0 7.49133 0.574639 8.06477 1.28349 8.06477H8.52761C9.23646 8.06477 9.8111 7.49133 9.8111 6.78396V1.28081C9.8111 0.573439 9.23646 0 8.52761 0Z" fill="#020202"/>
<path d="M25.2568 21.8877C25.2568 19.0732 22.9704 16.7916 20.15 16.7916C17.3296 16.7916 15.0432 19.0732 15.0432 21.8877C15.0432 24.7022 17.3296 26.9838 20.15 26.9838C22.9704 26.9838 25.2568 24.7022 25.2568 21.8877Z" fill="#020202"/>
<g clip-path="url(#clip0_2067_100)">
<path d="M57.0834 22.5617L56.766 26.4822H36.0959V22.7767L51.2303 3.92048H36.5911V0H56.3724V3.70548L41.238 22.5617H57.0834Z" fill="#020202"/>
<path d="M77.6393 17.6548H63.9396C64.092 18.7804 64.4729 19.7542 65.1077 20.5762C65.7298 21.3982 66.5678 22.0306 67.5962 22.4732C68.6247 22.9158 69.8435 23.1435 71.2402 23.1435C72.3448 23.1435 73.4875 22.9791 74.6809 22.6502C75.8744 22.3214 76.8648 21.8788 77.6393 21.3097L77.817 25.0152C77.0425 25.5843 76.0014 26.0143 74.7063 26.3304C73.4113 26.6466 72.167 26.7984 70.9735 26.7984C68.612 26.7984 66.5805 26.381 64.8665 25.5463C63.1524 24.7117 61.832 23.5229 60.9305 21.98C60.0163 20.4371 59.5593 18.6033 59.5593 16.4913C59.5593 14.5058 59.9783 12.7605 60.8162 11.2809C61.6542 9.78855 62.7969 8.6377 64.2443 7.80302C65.6917 6.96834 67.3423 6.55099 69.196 6.55099C70.872 6.55099 72.3575 6.89246 73.6779 7.57538C74.9857 8.2583 76.0141 9.2321 76.7505 10.4968C77.4869 11.7614 77.8424 13.2537 77.8424 14.9737C77.8424 15.3278 77.8297 15.7578 77.7916 16.2637C77.7662 16.7695 77.7154 17.2248 77.652 17.6422L77.6393 17.6548ZM69.1833 9.62414C67.7232 9.62414 66.4916 10.1174 65.514 11.1165C64.5236 12.1155 63.965 13.4434 63.8126 15.1128H73.843C73.8684 15.0243 73.8938 14.9105 73.8938 14.784V14.4046C73.8938 13.0135 73.4748 11.8626 72.6241 10.9773C71.7734 10.0921 70.6307 9.63679 69.196 9.63679L69.1833 9.62414Z" fill="#020202"/>
<path d="M94.5511 7.39832L93.929 10.9647C93.3068 10.6738 92.5577 10.4335 91.6944 10.2565C90.831 10.0794 89.9041 9.99089 88.9138 9.99089C87.7838 9.99089 86.9204 10.1932 86.3237 10.5979C85.7269 11.0026 85.4222 11.5464 85.4222 12.2294C85.4222 12.7352 85.6635 13.1652 86.1586 13.5193C86.6538 13.8734 87.2759 14.1769 88.0123 14.4299C88.7614 14.6828 89.5613 14.961 90.4247 15.2772C91.2881 15.5934 92.1006 15.9728 92.8624 16.4154C93.6242 16.8581 94.2464 17.4398 94.7162 18.1354C95.1986 18.8309 95.4272 19.7289 95.4272 20.8291C95.4272 21.9294 95.1605 22.8905 94.6273 23.7884C94.094 24.699 93.2306 25.4199 92.0499 25.9763C90.8691 26.5201 89.3201 26.7984 87.4156 26.7984C86.1967 26.7984 84.9778 26.6592 83.7717 26.3937C82.5655 26.1281 81.5878 25.774 80.8387 25.3187L81.1562 21.7017C81.9053 22.1444 82.8448 22.5364 84.0002 22.8652C85.1429 23.194 86.2729 23.3585 87.3775 23.3585C89.8533 23.3585 91.0976 22.5744 91.0976 20.9935C91.0976 20.4244 90.8564 19.9818 90.3866 19.653C89.9041 19.3242 89.2947 19.0333 88.5329 18.7551C87.7711 18.4895 86.9585 18.1986 86.0951 17.8824C85.2318 17.5663 84.4192 17.1869 83.6828 16.7442C82.9464 16.3016 82.3242 15.7325 81.8418 15.0243C81.3593 14.3161 81.1308 13.4434 81.1308 12.3685C81.1308 11.2935 81.4355 10.3197 82.0449 9.42179C82.6544 8.52387 83.5431 7.82831 84.7112 7.30979C85.8793 6.79128 87.2886 6.5257 88.9646 6.5257C90.1327 6.5257 91.1865 6.60158 92.1387 6.75334C93.091 6.9051 93.9036 7.10744 94.5511 7.37302V7.39832Z" fill="#020202"/>
<path d="M104.493 10.4715V19.9692C104.493 21.0947 104.772 21.9041 105.343 22.3973C105.915 22.8905 106.689 23.1308 107.667 23.1308C108.238 23.1308 108.771 23.0423 109.279 22.8652C109.787 22.6882 110.206 22.4606 110.536 22.195L110.765 25.7613C109.774 26.4443 108.454 26.7857 106.778 26.7857C104.594 26.7857 102.982 26.2419 101.928 25.1543C100.874 24.0667 100.341 22.4985 100.341 20.4497V10.4588H97.5603V6.84188H100.341V2.5673L104.505 1.63144V6.84188" fill="#020202"/>
<path d="M132.197 6.86717L126.064 23.4976C125.163 25.9637 124.185 27.9998 123.106 29.6059C122.027 31.2121 120.871 32.4388 119.614 33.3114C118.357 34.1714 117.024 34.7531 115.589 35.0567L113.799 31.8065C115.348 31.4144 116.631 30.7821 117.621 29.9095C118.624 29.0368 119.475 27.8986 120.198 26.4949L112.314 6.87982L116.618 6.79129L120.96 17.3639C121.29 18.2871 121.608 19.1724 121.925 20.045C122.242 20.905 122.458 21.6259 122.573 22.1823H122.801C122.915 21.6132 123.093 20.905 123.334 20.045C123.576 19.1851 123.842 18.2745 124.134 17.326L127.892 6.89246H132.184L132.197 6.86717Z" fill="#020202"/>
<path d="M155.558 19.0333C155.558 21.2338 154.771 23.017 153.184 24.4081C151.597 25.7866 149.261 26.4822 146.15 26.4822H135.498V0H145.35C148.398 0 150.658 0.619688 152.13 1.87171C153.603 3.12373 154.352 4.80575 154.352 6.9051C154.352 8.35947 153.971 9.59885 153.21 10.6106C152.448 11.6223 151.47 12.3179 150.277 12.7099C151.864 13.102 153.133 13.8355 154.098 14.9231C155.063 16.0107 155.558 17.3766 155.558 19.0459V19.0333ZM150.048 7.48685C150.048 6.27276 149.642 5.31161 148.817 4.61605C147.991 3.92048 146.671 3.56637 144.855 3.56637H139.802V11.5085H145.135C146.81 11.5085 148.042 11.1417 148.855 10.4209C149.655 9.68737 150.061 8.71358 150.061 7.49949L150.048 7.48685ZM151.165 18.6792C151.165 17.4272 150.721 16.466 149.82 15.7831C148.918 15.1002 147.534 14.7587 145.655 14.7587H139.789V22.9158H145.604C147.42 22.9158 148.804 22.5617 149.743 21.8409C150.683 21.12 151.153 20.0703 151.153 18.6792H151.165Z" fill="#020202"/>
<path d="M175.924 17.6548H162.224C162.377 18.7804 162.757 19.7542 163.392 20.5762C164.014 21.3982 164.852 22.0306 165.881 22.4732C166.909 22.9158 168.128 23.1435 169.525 23.1435C170.629 23.1435 171.772 22.9791 172.966 22.6502C174.159 22.3214 175.149 21.8788 175.924 21.3097L176.102 25.0152C175.327 25.5843 174.286 26.0143 172.991 26.3304C171.696 26.6466 170.452 26.7984 169.258 26.7984C166.897 26.7984 164.865 26.381 163.151 25.5463C161.437 24.7117 160.117 23.5229 159.215 21.98C158.301 20.4371 157.844 18.6033 157.844 16.4913C157.844 14.5058 158.263 12.7605 159.101 11.2809C159.939 9.8012 161.082 8.6377 162.529 7.80302C163.976 6.96834 165.627 6.55099 167.481 6.55099C169.157 6.55099 170.642 6.89246 171.963 7.57538C173.27 8.2583 174.299 9.2321 175.035 10.4968C175.772 11.7614 176.127 13.2537 176.127 14.9737C176.127 15.3278 176.114 15.7578 176.076 16.2637C176.051 16.7695 176 17.2248 175.937 17.6422L175.924 17.6548ZM167.468 9.62414C166.008 9.62414 164.776 10.1174 163.799 11.1165C162.808 12.1155 162.25 13.4434 162.097 15.1128H172.128C172.153 15.0243 172.178 14.9105 172.178 14.784V14.4046C172.178 13.0135 171.759 11.8626 170.909 10.9773C170.058 10.0921 168.915 9.63679 167.481 9.63679L167.468 9.62414Z" fill="#020202"/>
<path d="M195.883 26.4822H191.896V24.8381C191.122 25.4072 190.182 25.8752 189.077 26.2419C187.973 26.6087 186.779 26.7984 185.497 26.7984C183.288 26.7984 181.599 26.2798 180.444 25.2555C179.276 24.2311 178.692 22.8273 178.692 21.0441C178.692 19.0586 179.403 17.5536 180.837 16.5672C182.272 15.5681 184.177 15.0749 186.564 15.0749C187.516 15.0749 188.481 15.1634 189.446 15.3405C190.411 15.5175 191.198 15.7451 191.795 16.0107V14.177C191.795 12.7858 191.376 11.7741 190.525 11.1417C189.674 10.5094 188.417 10.2059 186.741 10.2059C185.573 10.2059 184.431 10.3577 183.301 10.6485C182.171 10.952 181.244 11.3188 180.52 11.7614L180.342 8.01801C181.244 7.53744 182.285 7.18333 183.478 6.9304C184.672 6.67746 185.941 6.55099 187.287 6.55099C190.03 6.55099 192.15 7.13274 193.648 8.29624C195.134 9.45974 195.883 11.3314 195.883 13.9114V26.4822ZM191.807 22.3847V18.6792C191.274 18.3883 190.601 18.1607 189.814 18.0089C189.027 17.8571 188.24 17.7813 187.465 17.7813C186.03 17.7813 184.913 18.0342 184.113 18.5401C183.313 19.0459 182.907 19.868 182.907 20.9935C182.907 22.0306 183.262 22.7894 183.961 23.2446C184.659 23.6999 185.611 23.9402 186.805 23.9402C187.732 23.9402 188.659 23.7758 189.585 23.447C190.512 23.1182 191.261 22.7641 191.82 22.372L191.807 22.3847Z" fill="#020202"/>
<path d="M218.623 26.4822H214.42V14.4425C214.42 12.9882 214.064 11.9258 213.341 11.2556C212.63 10.5853 211.627 10.2565 210.344 10.2565C209.481 10.2565 208.592 10.4335 207.678 10.775C206.764 11.1164 205.888 11.5591 205.063 12.0902V26.4948H200.86V6.95568L205.063 6.77862V8.87798C206.142 8.08123 207.221 7.48684 208.326 7.12008C209.43 6.75333 210.56 6.56363 211.728 6.56363C213.849 6.56363 215.525 7.13273 216.769 8.25829C218.013 9.38384 218.623 11.1544 218.623 13.5699V26.4948V26.4822Z" fill="#020202"/>
<path d="M109.597 10.4841H104.467C104.226 10.4841 104.074 10.2059 104.213 10.0036L106.232 6.99364C106.283 6.90511 106.384 6.85452 106.486 6.85452H111.615C111.857 6.85452 112.009 7.13275 111.869 7.3351L109.851 10.345C109.8 10.4335 109.698 10.4841 109.597 10.4841Z" fill="#020202"/>
<path d="M222.406 26.4822V22.9158L233.465 10.4841H222.952V6.87979H238.48V10.4462L227.472 22.8779H239.013V26.4822H222.406Z" fill="#020202"/>
</g>
<defs>
<clipPath id="clip0_2067_100">
<rect width="202.905" height="35.044" fill="white" transform="translate(36.0959)"/>
</clipPath>
</defs>
</svg>
